<svg width="213" height="137" viewBox="0 0 213 137" fill="none" xmlns="http://www.w3.org/2000/svg">
<path fill-rule="evenodd" clip-rule="evenodd" d="M183.45 47.6771L180.496 49.4992C180.352 49.266 180.206 49.0332 180.06 48.8008C179.913 48.5684 179.765 48.3372 179.616 48.1072L182.53 46.221C182.685 46.4616 182.84 46.7034 182.994 46.9465C183.147 47.1896 183.299 47.4332 183.45 47.6771ZM181.583 44.793L178.711 46.7424C178.403 46.288 178.09 45.8387 177.774 45.3946L180.602 43.3822C180.933 43.8472 181.26 44.3174 181.583 44.793ZM179.594 41.9977L176.811 44.0724C176.483 43.6326 176.152 43.1983 175.817 42.7694L178.552 40.6328C178.903 41.0822 179.251 41.5372 179.594 41.9977ZM177.481 39.2926L174.795 41.4905C174.448 41.0675 174.099 40.6502 173.746 40.2386L176.382 37.9799C176.752 38.4116 177.118 38.8492 177.481 39.2926ZM175.248 36.6877L172.666 39.0068C172.3 38.6 171.932 38.1991 171.56 37.8044L174.088 35.4256C174.478 35.8401 174.865 36.2609 175.248 36.6877ZM172.899 34.1912L170.428 36.629C170.044 36.2395 169.656 35.8563 169.266 35.4795L171.678 32.983C172.088 33.3792 172.495 33.7819 172.899 34.1912ZM170.431 31.8076L168.081 34.362C167.679 33.9925 167.275 33.6296 166.868 33.2734L169.154 30.6617C169.583 31.0368 170.008 31.4188 170.431 31.8076ZM167.848 29.5471L165.628 32.2155C165.21 31.8674 164.789 31.5265 164.366 31.1926L166.517 28.4683C166.963 28.8206 167.407 29.1802 167.848 29.5471ZM165.157 27.4227L163.078 30.2022C162.642 29.8761 162.204 29.5575 161.764 29.2465L163.768 26.4126C164.233 26.7415 164.696 27.0782 165.157 27.4227ZM162.356 25.4422C161.878 25.1234 161.398 24.8128 160.916 24.5104L159.071 27.4504C159.525 27.7355 159.978 28.0286 160.429 28.3296L162.356 25.4422ZM159.448 23.6181L157.688 26.6097C157.222 26.3354 156.755 26.0695 156.286 25.8122L157.958 22.7703C158.456 23.0442 158.953 23.3268 159.448 23.6181ZM156.446 21.9683L154.866 25.0591C154.385 24.8132 153.903 24.5763 153.421 24.3485L154.903 21.21C155.418 21.4534 155.933 21.7062 156.446 21.9683ZM153.34 20.5019L151.959 23.6863C151.467 23.4729 150.974 23.2689 150.482 23.0745L151.757 19.8461C152.285 20.0548 152.813 20.2734 153.34 20.5019ZM150.152 19.2438C149.609 19.0507 149.067 18.8682 148.524 18.6965L147.477 22.0059C147.98 22.1651 148.484 22.3344 148.988 22.5139L150.152 19.2438ZM146.879 18.2092L145.955 21.5549C145.443 21.4136 144.932 21.2829 144.423 21.163L145.218 17.7844C145.771 17.9146 146.325 18.0562 146.879 18.2092ZM143.544 17.4248L142.883 20.8322C142.364 20.7316 141.847 20.6423 141.332 20.5644L141.851 17.1325C142.414 17.2177 142.978 17.3151 143.544 17.4248ZM140.149 16.9122L139.778 20.3633C139.257 20.3074 138.739 20.2633 138.224 20.2312L138.44 16.7669C139.008 16.8023 139.577 16.8508 140.149 16.9122ZM136.727 16.6999L136.673 20.1704C136.154 20.1623 135.639 20.1666 135.127 20.1833L135.013 16.7142C135.582 16.6956 136.153 16.6909 136.727 16.6999ZM133.3 16.8132L133.587 20.2722C133.075 20.3148 132.566 20.3704 132.061 20.4389L131.594 16.9996C132.159 16.9228 132.728 16.8607 133.3 16.8132ZM129.901 17.2757L130.553 20.6851C130.052 20.7807 129.556 20.8895 129.065 21.0118L128.227 17.6436C128.78 17.5057 129.339 17.3832 129.901 17.2757ZM126.575 18.1044L127.602 21.4199C127.119 21.5695 126.641 21.7328 126.169 21.9097L124.952 18.659C125.488 18.4585 126.029 18.2737 126.575 18.1044ZM123.364 19.3068L124.768 22.481C124.309 22.6843 123.854 22.9014 123.405 23.1324L121.817 20.0462C122.327 19.7839 122.842 19.5375 123.364 19.3068ZM120.317 20.8752L122.084 23.8626C121.867 23.991 121.651 24.1229 121.437 24.2583C121.223 24.3936 121.011 24.5318 120.802 24.6727L118.862 21.7943C119.099 21.6344 119.34 21.4777 119.583 21.3241C119.826 21.1705 120.07 21.0209 120.317 20.8752ZM117.469 22.7937L119.575 25.553C119.174 25.8592 118.783 26.1764 118.402 26.5042L116.138 23.8733C116.57 23.5014 117.014 23.1413 117.469 22.7937ZM114.871 25.0298L117.285 27.5239C116.922 27.875 116.569 28.2366 116.227 28.6086L113.673 26.2577C114.061 25.837 114.46 25.4276 114.871 25.0298ZM112.548 27.5517L115.231 29.7545C114.909 30.1456 114.598 30.5468 114.297 30.9579L111.497 28.9065C111.836 28.4445 112.186 27.9927 112.548 27.5517ZM110.521 30.3168L113.427 32.215C113.149 32.6413 112.88 33.077 112.622 33.5218L109.621 31.7774C109.909 31.2811 110.209 30.7941 110.521 30.3168ZM108.796 33.2826L111.881 34.8741C111.646 35.3291 111.421 35.7927 111.205 36.2647L108.047 34.8243C108.286 34.3021 108.535 33.7881 108.796 33.2826ZM107.373 36.4001L110.594 37.6919C110.402 38.171 110.22 38.6579 110.047 39.1521L106.771 38.0058C106.96 37.4634 107.161 36.928 107.373 36.4001ZM106.239 39.6376L109.562 40.6418C109.411 41.1404 109.27 41.6458 109.138 42.1577L105.776 41.292C105.92 40.7343 106.074 40.1828 106.239 39.6376ZM105.382 42.959L108.775 43.6906C108.665 44.2021 108.564 44.7195 108.472 45.2424L105.054 44.641C105.153 44.0751 105.263 43.5143 105.382 42.959ZM104.788 46.336L108.226 46.8111C108.154 47.3339 108.09 47.8617 108.036 48.3942L104.583 48.0416C104.641 47.4687 104.71 46.9 104.788 46.336ZM104.438 49.7496L107.901 49.9838C107.866 50.5119 107.838 51.0442 107.82 51.5804L104.351 51.4609C104.371 50.8869 104.4 50.3163 104.438 49.7496ZM104.32 53.1767L107.791 53.1849C107.789 53.7183 107.796 54.2553 107.812 54.7954L104.342 54.8954C104.326 54.3195 104.318 53.7465 104.32 53.1767ZM104.418 56.6057L107.883 56.4014C107.914 56.9348 107.954 57.471 108.001 58.0098L104.544 58.3156C104.493 57.7434 104.451 57.1733 104.418 56.6057ZM104.72 60.0243L108.167 59.6197C108.23 60.1523 108.3 60.6871 108.378 61.2239L104.943 61.7244C104.861 61.156 104.786 60.5892 104.72 60.0243ZM105.214 63.4166L108.633 62.8228C108.726 63.3535 108.825 63.8858 108.933 64.4195L105.53 65.1043C105.417 64.5405 105.311 63.9778 105.214 63.4166ZM105.891 66.7819L109.274 66.0085C109.394 66.5338 109.522 67.0601 109.656 67.5874L106.294 68.4469C106.152 67.8912 106.017 67.3361 105.891 66.7819ZM106.74 70.1051L110.08 69.1611C110.227 69.6815 110.381 70.2024 110.543 70.7239L107.227 71.7501C107.057 71.2014 106.895 70.653 106.74 70.1051ZM107.753 73.3806L111.043 72.2741C111.216 72.7882 111.396 73.3025 111.583 73.8168L108.32 75.002C108.124 74.4616 107.935 73.9211 107.753 73.3806ZM108.925 76.6062L112.158 75.3441C112.355 75.8491 112.559 76.354 112.77 76.8585L109.567 78.1958C109.346 77.6663 109.132 77.1364 108.925 76.6062ZM110.247 79.7742L113.419 78.3632C113.639 78.8585 113.866 79.3533 114.099 79.8474L110.961 81.3304C110.716 80.8124 110.479 80.2936 110.247 79.7742ZM111.712 82.8733L114.816 81.3197C115.059 81.8063 115.309 82.2922 115.566 82.777L112.498 84.3999C112.229 83.8921 111.967 83.3832 111.712 82.8733ZM113.315 85.905L116.347 84.2145C116.612 84.6905 116.884 85.1654 117.162 85.6391L114.169 87.3962C113.878 86.9005 113.593 86.4034 113.315 85.905ZM115.052 88.8642C115.202 89.1081 115.355 89.3516 115.508 89.5947C115.662 89.8378 115.816 90.0797 115.972 90.3202L118.886 88.434C118.737 88.2041 118.589 87.9729 118.442 87.7404C118.295 87.508 118.15 87.2752 118.006 87.0421L115.052 88.8642ZM116.919 91.7483L119.791 89.7988C120.099 90.2532 120.412 90.7025 120.728 91.1466L117.899 93.159C117.569 92.6941 117.242 92.2238 116.919 91.7483ZM118.908 94.5435L121.691 92.4689C122.019 92.9086 122.35 93.343 122.685 93.7719L119.95 95.9085C119.599 95.4591 119.251 95.0041 118.908 94.5435ZM121.021 97.2487L123.707 95.0508C124.053 95.4737 124.403 95.8911 124.756 96.3027L122.12 98.5613C121.75 98.1296 121.384 97.6921 121.021 97.2487ZM123.254 99.8535L125.836 97.5345C126.201 97.9413 126.57 98.3421 126.942 98.7369L124.414 101.116C124.024 100.701 123.637 100.28 123.254 99.8535ZM125.603 102.35L128.074 99.9122C128.458 100.302 128.846 100.685 129.236 101.062L126.824 103.558C126.414 103.162 126.007 102.759 125.603 102.35ZM128.071 104.734L130.421 102.179C130.823 102.549 131.227 102.912 131.634 103.268L129.348 105.88C128.919 105.504 128.494 105.122 128.071 104.734ZM130.654 106.994L132.874 104.326C133.292 104.674 133.713 105.015 134.136 105.349L131.985 108.073C131.539 107.721 131.095 107.361 130.654 106.994ZM133.345 109.119L135.424 106.339C135.86 106.665 136.298 106.984 136.738 107.295L134.734 110.129C134.269 109.8 133.806 109.463 133.345 109.119ZM136.146 111.099L138.072 108.212C138.524 108.513 138.977 108.806 139.431 109.091L137.586 112.031C137.104 111.728 136.624 111.418 136.146 111.099ZM139.053 112.923L140.814 109.932C141.28 110.206 141.747 110.472 142.215 110.729L140.544 113.771C140.045 113.497 139.549 113.214 139.053 112.923ZM142.056 114.573L143.636 111.482C144.117 111.728 144.599 111.965 145.081 112.193L143.599 115.331C143.084 115.088 142.569 114.835 142.056 114.573ZM145.162 116.039L146.543 112.855C147.035 113.068 147.528 113.272 148.02 113.467L146.745 116.695C146.217 116.486 145.689 116.268 145.162 116.039ZM148.35 117.297L149.513 114.027C150.018 114.207 150.522 114.376 151.025 114.535L149.978 117.845C149.435 117.673 148.892 117.491 148.35 117.297ZM151.623 118.332L152.547 114.986C153.059 115.128 153.57 115.258 154.079 115.378L153.284 118.757C152.731 118.627 152.177 118.485 151.623 118.332ZM154.958 119.116L155.619 115.709C156.138 115.81 156.655 115.899 157.17 115.977L156.651 119.409C156.088 119.324 155.524 119.226 154.958 119.116ZM158.353 119.629L158.724 116.178C159.245 116.234 159.763 116.278 160.278 116.31L160.062 119.774C159.494 119.739 158.925 119.69 158.353 119.629ZM161.775 119.841L161.829 116.371C162.348 116.379 162.863 116.375 163.375 116.358L163.488 119.827C162.92 119.846 162.349 119.85 161.775 119.841ZM165.202 119.728L164.914 116.269C165.427 116.226 165.936 116.171 166.441 116.102L166.908 119.542C166.343 119.618 165.774 119.681 165.202 119.728ZM168.6 119.266L167.949 115.856C168.45 115.761 168.946 115.652 169.437 115.529L170.275 118.898C169.721 119.036 169.163 119.158 168.6 119.266ZM171.927 118.437L170.9 115.121C171.383 114.972 171.861 114.808 172.333 114.632L173.55 117.882C173.014 118.083 172.473 118.268 171.927 118.437ZM175.138 117.234L173.734 114.06C174.193 113.857 174.648 113.64 175.096 113.409L176.685 116.495C176.175 116.757 175.66 117.004 175.138 117.234ZM178.185 115.666L176.418 112.679C176.635 112.55 176.851 112.418 177.065 112.283C177.279 112.148 177.491 112.009 177.7 111.869L179.64 114.747C179.402 114.907 179.162 115.064 178.919 115.217C178.676 115.371 178.432 115.52 178.185 115.666ZM181.032 113.748L178.927 110.988C179.328 110.682 179.719 110.365 180.1 110.037L182.364 112.668C181.932 113.04 181.488 113.4 181.032 113.748ZM183.631 111.512L181.217 109.017C181.58 108.666 181.932 108.305 182.275 107.933L184.828 110.284C184.441 110.704 184.042 111.114 183.631 111.512ZM185.954 108.99L183.271 106.787C183.592 106.396 183.904 105.994 184.205 105.583L187.005 107.635C186.666 108.097 186.316 108.549 185.954 108.99ZM187.981 106.224L185.075 104.326C185.353 103.9 185.622 103.464 185.88 103.019L188.881 104.764C188.593 105.26 188.292 105.747 187.981 106.224ZM189.706 103.259L186.621 101.667C186.856 101.212 187.081 100.749 187.296 100.277L190.454 101.717C190.216 102.239 189.967 102.753 189.706 103.259ZM191.129 100.141L187.907 98.8493C188.1 98.3702 188.282 97.8834 188.455 97.3891L191.731 98.5354C191.541 99.0779 191.341 99.6133 191.129 100.141ZM192.263 96.9036C192.428 96.3585 192.582 95.8069 192.725 95.2493L189.364 94.3835C189.232 94.8955 189.091 95.4008 188.94 95.8994L192.263 96.9036ZM193.119 93.5823L189.726 92.8507C189.837 92.3392 189.938 91.8218 190.03 91.2988L193.448 91.9002C193.349 92.4662 193.239 93.027 193.119 93.5823ZM193.714 90.2052L190.276 89.7301C190.348 89.2074 190.412 88.6796 190.466 88.1471L193.919 88.4996C193.86 89.0726 193.792 89.6412 193.714 90.2052ZM194.064 86.7916L190.601 86.5575C190.636 86.0294 190.663 85.4971 190.682 84.9608L194.151 85.0803C194.131 85.6544 194.102 86.2249 194.064 86.7916ZM194.182 83.3646L190.711 83.3564C190.713 82.8229 190.705 82.286 190.69 81.7458L194.159 81.6459C194.176 82.2217 194.184 82.7947 194.182 83.3646ZM194.084 79.9355L190.619 80.1398C190.588 79.6064 190.548 79.0702 190.501 78.5315L193.958 78.2256C194.009 78.7979 194.051 79.3679 194.084 79.9355ZM193.782 76.5169L190.335 76.9216C190.272 76.3889 190.202 75.8541 190.124 75.3173L193.558 74.8168C193.641 75.3852 193.716 75.952 193.782 76.5169ZM193.288 73.1247L189.868 73.7185C189.776 73.1878 189.677 72.6554 189.569 72.1217L192.972 71.437C193.085 72.0008 193.191 72.5634 193.288 73.1247ZM192.611 69.7594L189.228 70.5327C189.108 70.0075 188.98 69.4811 188.845 68.9539L192.208 68.0943C192.35 68.6501 192.485 69.2052 192.611 69.7594ZM191.762 66.4362L188.422 67.3801C188.275 66.8598 188.121 66.3388 187.959 65.8174L191.275 64.7912C191.445 65.3398 191.607 65.8882 191.762 66.4362ZM190.749 63.1606L187.459 64.2671C187.286 63.7531 187.106 63.2388 186.919 62.7245L190.181 61.5392C190.378 62.0796 190.567 62.6202 190.749 63.1606ZM189.577 59.9351L186.344 61.1971C186.147 60.6921 185.943 60.1872 185.732 59.6827L188.935 58.3455C189.156 58.8749 189.37 59.4048 189.577 59.9351ZM188.255 56.767L185.083 58.178C184.863 57.6828 184.636 57.188 184.403 56.6939L187.541 55.2109C187.785 55.7288 188.023 56.2476 188.255 56.767ZM186.79 53.6679L183.686 55.2216C183.443 54.7349 183.193 54.2491 182.936 53.7642L186.004 52.1413C186.273 52.6491 186.535 53.158 186.79 53.6679ZM185.187 50.6362L182.155 52.3268C181.89 51.8507 181.618 51.3758 181.34 50.9022L184.333 49.1451C184.624 49.6407 184.909 50.1378 185.187 50.6362Z" fill="#373737"/>
<path fill-rule="evenodd" clip-rule="evenodd" d="M149.911 86.1816C150.6 74.6306 147.194 61.2197 139.346 48.8008C131.498 36.382 120.847 27.5494 110.118 23.2142C99.3828 18.8765 88.8555 19.1189 80.7231 24.2583C72.5906 29.3976 67.8532 38.8019 67.1635 50.3596C66.4741 61.9106 69.8802 75.3216 77.7284 87.7404C85.5766 100.159 96.2275 108.992 106.956 113.327C117.691 117.665 128.219 117.422 136.351 112.283C144.484 107.144 149.221 97.7394 149.911 86.1816ZM138.205 115.217C156.841 103.44 158.665 72.8744 142.28 46.9465C125.895 21.0187 97.5044 9.54713 78.8688 21.3241C60.2331 33.1011 58.4089 63.6669 74.7943 89.5947C91.1796 115.523 119.57 126.994 138.205 115.217Z" fill="#1D1D1F"/>
<path d="M97.1539 46.9465C113.539 72.8744 111.715 103.44 93.0794 115.217C74.4438 126.994 46.0537 115.523 29.6683 89.5947C13.283 63.6669 15.1072 33.1011 33.7428 21.3241C52.3785 9.54713 80.7686 21.0187 97.1539 46.9465Z" fill="#373737"/>
</svg>
